<?xml version="1.0" standalone="no"?>
<!DOCTYPE svg PUBLIC "-//W3C//DTD SVG 20010904//EN"
 "http://www.w3.org/TR/2001/REC-SVG-20010904/DTD/svg10.dtd">
<svg version="1.0" xmlns="http://www.w3.org/2000/svg"
 width="700.000000pt" height="700.000000pt" viewBox="0 0 700.000000 700.000000"
 preserveAspectRatio="xMidYMid meet">
<metadata>
Created by potrace 1.11, written by Peter Selinger 2001-2013
</metadata>
<g transform="translate(0.000000,700.000000) scale(0.100000,-0.100000)"
fill="#000000" stroke="none">
<path d="M1711 5900 c-70 -25 -163 -83 -200 -125 -48 -55 -70 -105 -161 -360
-71 -197 -157 -335 -210 -335 -37 0 -68 44 -95 136 -46 152 -76 181 -180 172
-70 -6 -102 -29 -138 -99 -54 -106 -84 -308 -102 -699 -4 -80 -9 -179 -11
-220 -2 -41 -6 -767 -10 -1612 l-6 -1538 333 4 c424 6 434 7 579 81 144 74
155 75 815 80 280 3 520 7 535 9 14 3 41 8 60 11 54 9 103 37 126 72 14 20 31
83 49 175 15 79 36 179 47 223 11 44 22 89 24 100 2 11 15 60 28 108 49 176
34 185 -334 203 -378 18 -386 17 -495 -84 -87 -80 -126 -100 -150 -76 -18 19
-19 50 -1 134 8 36 13 67 11 70 -2 3 -141 5 -309 4 -168 0 -307 2 -307 5 -1 3
-3 55 -5 115 -1 59 -5 111 -8 114 -3 2 -12 -1 -20 -7 -8 -7 -16 -8 -19 -4 -15
26 -22 259 -28 943 -3 409 -18 514 -67 484 -27 -16 -240 -344 -257 -395 -24
-71 -26 -88 -26 -179 1 -149 49 -280 133 -362 26 -26 53 -59 59 -75 20 -54 28
-251 16 -394 -6 -77 -31 -159 -48 -159 -5 0 -12 -1 -16 -2 -3 -2 -7 5 -9 15
-1 11 -5 21 -7 24 -9 8 -41 -6 -67 -29 -14 -13 -36 -32 -49 -43 l-24 -20 6 35
c3 19 15 77 26 129 11 51 23 117 26 145 3 28 9 60 12 71 15 52 -9 -1 -47 -105
-73 -200 -136 -321 -213 -407 -42 -47 -56 -88 -63 -178 -9 -128 -13 -180 -19
-205 -2 -14 -7 -38 -11 -55 -3 -16 -15 -55 -25 -84 -31 -85 -51 -179 -56 -265
-2 -44 -9 -88 -15 -99 -10 -19 -10 -19 -28 -1 -10 11 -25 42 -34 69 l-15 50 0
-52 c-1 -28 -6 -64 -12 -80 -9 -25 -11 -26 -21 -10 -13 23 -15 282 -5 572 4
121 10 299 13 395 7 250 17 285 134 480 31 52 69 122 84 155 32 72 67 195 60
206 -3 5 0 9 6 9 15 0 11 -106 -7 -183 -7 -32 -34 -106 -59 -164 -39 -90 -64
-165 -87 -261 -15 -63 18 -1 96 182 137 318 141 387 42 636 -53 136 -69 221
-55 298 8 45 -2 55 -21 20 -9 -17 -13 -19 -20 -7 -14 26 -26 261 -28 548 -1
79 -3 142 -5 140 -5 -5 -13 -77 -22 -199 -9 -120 -21 -130 -24 -19 -6 199 -5
928 2 1011 7 91 13 112 29 102 26 -16 31 -58 44 -374 3 -74 8 -166 10 -205 2
-38 7 -149 11 -245 4 -96 8 -197 10 -225 1 -27 3 -83 3 -124 1 -41 3 -72 6
-69 3 3 7 110 10 239 8 400 25 539 76 610 23 33 55 43 64 20 4 -9 4 -207 2
-439 -3 -233 -3 -422 -1 -419 7 7 13 45 20 117 3 36 7 76 9 89 3 13 7 90 10
170 9 251 18 335 37 384 10 26 12 27 21 11 10 -17 12 -255 3 -311 -2 -15 -7
-66 -11 -113 -3 -47 -8 -98 -10 -115 -5 -38 -15 -147 -19 -202 -3 -45 7 -56
23 -25 17 32 39 177 56 367 3 39 8 86 10 105 2 19 7 67 10 105 3 39 7 78 9 87
3 24 16 35 17 15 1 -10 2 -20 3 -24 2 -5 6 -34 10 -65 5 -32 12 -58 15 -58 4
0 8 44 9 98 3 132 10 212 28 312 19 99 22 115 24 115 1 0 3 9 5 21 6 30 75
207 84 217 5 5 19 -22 32 -60 13 -37 29 -68 34 -68 18 0 39 136 60 390 9 113
40 194 65 169 9 -9 13 -27 25 -129 4 -40 10 -488 21 -1780 3 -368 7 -692 8
-720 2 -27 4 -79 5 -114 1 -67 7 -76 15 -26 12 72 30 602 41 1220 23 1193 33
1378 86 1570 36 132 11 170 -90 135z m-714 -825 c3 -38 -1 -58 -17 -84 -12
-18 -23 -32 -24 -30 -2 2 -6 38 -10 79 -3 41 -8 86 -10 100 -2 14 -7 47 -11
74 -4 27 -9 56 -11 65 -2 9 15 -22 38 -69 27 -55 43 -102 45 -135z m453 -1283
c0 -41 -19 -74 -63 -111 -85 -71 -126 -219 -89 -316 9 -22 33 -62 54 -88 69
-88 94 -247 38 -247 -57 0 -152 231 -165 400 -7 98 129 378 195 402 24 8 30 0
30 -40z m-4 -167 c4 -9 -4 -42 -16 -76 -22 -58 -29 -163 -16 -227 7 -32 -15
-23 -33 14 -29 58 -16 247 20 291 15 18 38 17 45 -2z m-626 -152 c22 -48 48
-95 57 -105 28 -31 7 -31 -28 0 -45 40 -79 105 -79 153 0 21 2 39 5 39 2 0 22
-39 45 -87z m-15 -179 c8 -4 30 -27 47 -52 39 -57 41 -114 5 -222 -24 -72
-104 -270 -113 -280 -3 -2 -4 80 -4 183 1 103 5 185 9 182 5 -2 14 -39 21 -82
14 -86 21 -84 44 16 17 74 12 115 -20 162 -23 34 -33 99 -15 99 5 0 17 -3 26
-6z m815 -1019 c30 -2 125 -6 210 -10 147 -6 190 -14 190 -35 0 -27 -136 -37
-500 -39 -313 -1 -400 6 -400 30 0 15 49 57 73 63 20 4 282 -1 427 -9z m1195
-68 c11 -3 43 -8 70 -12 28 -5 52 -9 55 -9 3 -1 20 -7 38 -15 27 -11 30 -16
20 -29 -11 -12 -36 -14 -163 -9 -82 4 -163 9 -180 12 -16 3 -46 8 -65 11 -100
16 -134 40 -79 55 24 7 267 4 304 -4z m-700 -77 c29 -57 52 -75 113 -89 24 -5
46 -12 49 -15 11 -10 -7 -36 -37 -55 -96 -58 -228 76 -176 177 9 18 19 32 21
32 3 0 16 -22 30 -50z m-527 -30 c42 -6 93 -14 112 -16 67 -9 185 -45 231 -71
49 -26 145 -128 130 -137 -11 -7 -277 -73 -321 -80 -19 -3 -73 -8 -120 -12
-89 -6 -109 -14 -88 -31 34 -28 172 -15 443 41 66 14 140 27 165 31 25 3 56 8
70 10 109 20 410 26 504 10 57 -10 74 -17 97 -43 52 -59 34 -83 -38 -52 -148
63 -369 39 -818 -89 -168 -48 -328 -88 -381 -97 -22 -3 -42 -8 -45 -9 -3 -2
-28 -7 -55 -11 -27 -3 -51 -7 -54 -9 -22 -13 -407 -27 -415 -15 -3 5 -8 53
-11 108 -8 117 -9 116 96 127 71 8 90 15 44 16 -76 2 -144 25 -144 49 0 34 76
49 276 54 66 1 126 6 133 10 6 4 10 23 9 43 -1 24 3 39 15 48 25 18 21 23 -18
31 -32 6 -67 36 -77 66 -3 8 -24 0 -58 -21 -113 -69 -316 -51 -220 20 57 43
343 58 538 29z m1276 -51 c28 -10 42 -21 47 -40 9 -34 -13 -96 -45 -127 l-25
-26 -81 18 c-49 10 -142 19 -237 21 -189 5 -197 9 -163 78 13 25 34 50 49 57
77 36 373 49 455 19z m223 -71 c-4 -46 -8 -92 -10 -103 -5 -23 -14 -76 -22
-125 -18 -112 -81 -280 -105 -280 -33 0 -31 130 5 341 29 165 68 249 117 249
20 0 21 -4 15 -82z m-411 -248 c97 -20 154 -80 156 -165 1 -85 -62 -142 -149
-132 -56 6 -72 22 -78 77 -3 24 -11 50 -18 58 -16 15 -78 32 -117 31 -20 0
-13 -6 32 -30 69 -35 95 -68 78 -98 -17 -32 -48 -25 -109 25 -100 83 -139 85
-280 19 -95 -44 -171 -65 -171 -46 0 34 282 136 435 157 81 12 181 7 215 -11
42 -21 55 -52 42 -98 -18 -64 30 -60 49 4 15 50 3 95 -34 123 -25 18 -42 21
-140 21 -123 0 -177 -6 -308 -35 -130 -28 -266 -76 -333 -117 -77 -47 -127
-49 -271 -9 -58 16 -67 11 134 76 240 78 470 135 601 147 30 3 56 7 58 8 9 8
163 4 208 -5z m-1774 -132 c-2 -64 -42 -259 -52 -253 -20 13 7 272 33 303 15
19 20 8 19 -50z"/>
<path d="M1235 1740 c-49 -20 -100 -110 -89 -154 4 -16 17 -29 37 -35 44 -16
115 20 139 69 38 80 -13 151 -87 120z"/>
<path d="M4590 5901 c-14 -5 -39 -15 -55 -23 -70 -36 -131 -50 -220 -49 -49 0
-101 3 -114 5 -13 3 -56 8 -95 12 -39 3 -73 8 -76 9 -9 5 -137 17 -212 19 -93
3 -135 -6 -233 -54 -92 -45 -117 -66 -144 -118 -43 -87 -46 -140 -46 -912 0
-813 6 -936 50 -979 15 -15 20 -13 73 15 46 25 61 29 79 22 26 -13 41 -48 46
-108 8 -94 -15 -124 -103 -135 -125 -16 -126 -17 -121 -149 2 -55 4 -353 4
-661 1 -735 -13 -1364 -32 -1440 -4 -16 -5 -38 -3 -48 7 -34 105 -76 242 -102
55 -11 399 -15 465 -5 170 24 233 45 342 113 l83 52 1 225 c0 124 1 362 2 528
l1 304 36 -39 c98 -107 183 -204 222 -253 23 -30 51 -64 61 -75 11 -11 110
-141 222 -290 247 -329 228 -305 298 -373 163 -161 246 -142 617 138 124 94
230 194 230 217 0 20 -43 81 -184 263 -211 273 -374 474 -462 570 -107 117
-106 115 -76 117 9 1 51 9 92 18 41 9 100 20 130 26 115 22 246 61 282 84 45
30 54 59 62 192 7 114 25 194 55 245 21 35 40 47 95 64 83 25 96 125 102 805
l5 525 -88 38 c-123 53 -277 156 -433 292 -68 58 -216 190 -236 209 -11 11
-65 61 -119 110 -54 50 -110 101 -124 114 -14 12 -57 51 -95 85 -38 33 -74 66
-80 71 -6 6 -58 51 -116 101 -232 198 -337 253 -430 225z m111 -126 c60 -31
259 -172 289 -205 3 -3 32 -28 65 -55 33 -28 65 -54 71 -60 6 -5 44 -39 84
-75 147 -129 208 -187 381 -360 97 -97 185 -192 194 -210 l17 -33 -31 6 c-32
7 -95 46 -141 89 -14 13 -59 52 -100 88 -41 36 -80 69 -86 75 -10 9 -80 70
-199 174 -27 24 -81 72 -120 106 -38 34 -144 127 -235 206 -184 160 -290 258
-290 270 0 13 64 2 101 -16z m-785 1 c17 -2 64 -9 105 -15 41 -6 94 -13 119
-16 42 -6 124 -19 179 -30 28 -5 48 -22 38 -31 -20 -20 -329 -27 -452 -10 -22
3 -74 8 -115 11 -87 7 -150 22 -150 35 0 14 52 47 90 58 33 9 115 8 186 -2z
m824 -226 c19 -16 53 -58 75 -94 32 -52 47 -68 80 -80 101 -39 425 -348 425
-406 0 -30 -244 20 -311 64 -59 40 -94 89 -245 344 l-142 241 42 -21 c22 -11
57 -33 76 -48z m-1166 -26 c16 -74 23 -154 32 -354 11 -245 12 -276 13 -347 1
-40 5 -73 9 -73 5 0 9 12 9 28 3 137 16 553 18 577 2 17 3 47 4 68 2 64 19 32
27 -51 4 -42 9 -80 10 -84 1 -5 2 -22 3 -40 2 -63 9 -20 15 97 7 129 15 199
23 192 2 -3 12 -38 22 -79 l18 -73 11 40 c6 22 15 58 21 80 16 62 37 85 76 85
46 0 84 -19 99 -49 13 -26 14 -133 2 -201 -18 -98 -89 -354 -158 -570 -16 -52
-31 -99 -33 -105 -1 -5 -5 -17 -8 -25 -16 -40 -130 -424 -157 -528 -36 -139
-61 -170 -96 -117 -25 39 -29 142 -29 790 0 608 5 768 26 806 16 30 27 13 43
-67z m847 69 c1 -10 3 -40 5 -68 26 -410 25 -3823 -2 -4055 -8 -71 -24 -120
-38 -120 -20 0 -25 35 -33 215 -10 212 -10 3476 0 3720 8 208 9 220 26 283 12
42 40 59 42 25z m-287 -54 c23 -39 13 -88 -29 -133 -18 -20 -37 -36 -43 -36
-23 0 -16 166 8 195 16 19 44 8 64 -26z m135 -40 c34 -56 39 -159 6 -159 -25
0 -67 126 -57 173 6 27 30 20 51 -14z m369 -34 c11 -14 64 -98 118 -187 110
-179 178 -261 252 -301 55 -30 145 -53 242 -62 92 -9 187 -30 241 -53 46 -20
89 -63 89 -88 0 -25 -41 -37 -106 -31 -73 7 -128 28 -158 60 -63 67 -109 83
-140 48 -14 -15 -17 -34 -15 -87 4 -99 36 -182 110 -281 22 -29 39 -55 39 -58
0 -4 -35 29 -78 72 -108 108 -143 138 -185 158 -19 9 -38 23 -41 31 -5 12 -1
12 23 -1 42 -21 44 -2 10 74 -73 161 -284 408 -384 451 -39 17 -45 23 -52 62
-8 36 -9 129 -4 201 2 24 16 21 39 -8z m-570 -294 c9 -19 25 -36 36 -39 28 -7
19 -83 -34 -277 -73 -270 -144 -575 -163 -700 -3 -16 -7 -46 -11 -65 -3 -19
-8 -51 -11 -70 -12 -73 -16 -336 -6 -319 9 14 18 61 46 254 6 37 39 219 50
275 3 14 8 38 11 54 2 16 7 32 9 35 2 4 6 26 10 51 4 25 8 47 10 51 2 3 7 19
9 35 8 44 13 63 31 131 9 35 18 71 20 80 1 10 16 70 33 133 31 120 57 230 67
290 17 101 46 180 65 180 18 0 23 -25 22 -119 0 -107 -20 -213 -57 -310 -21
-57 -66 -219 -79 -285 -3 -11 -13 -59 -24 -106 -11 -47 -34 -155 -51 -240 -31
-160 -34 -175 -46 -250 -4 -25 -9 -53 -11 -64 -18 -95 -24 -238 -12 -280 14
-53 34 -53 92 -2 16 15 37 26 47 26 25 0 47 -77 55 -198 15 -223 8 -237 -46
-97 -45 116 -47 117 -130 72 -74 -40 -98 -45 -106 -22 -11 27 -24 16 -24 -20
0 -61 53 -72 118 -25 46 33 67 31 77 -8 4 -15 26 -76 50 -137 24 -60 47 -132
50 -160 4 -27 10 -59 13 -70 6 -23 13 -895 7 -895 -4 0 -65 189 -140 435 -80
262 -135 433 -148 456 -29 55 -52 80 -102 114 -94 62 -116 111 -111 253 2 73
11 123 35 202 17 58 31 123 31 146 0 22 -14 90 -31 150 -26 89 -32 127 -32
209 0 122 23 222 130 550 100 306 179 569 194 647 l13 63 13 -50 c8 -27 21
-65 31 -84z m704 -120 c107 -115 198 -244 183 -259 -5 -5 -72 36 -77 47 -8 20
-182 141 -219 152 -48 15 -69 51 -64 108 7 84 71 66 177 -48z m-99 -127 c29
-15 70 -40 92 -57 72 -55 165 -156 165 -178 0 -29 -134 64 -267 186 -88 79
-84 96 10 49z m-418 -354 c0 -168 2 -159 -68 -274 -20 -32 -46 -87 -57 -122
-39 -117 -45 -74 -14 111 15 86 35 177 100 450 l29 120 5 -65 c3 -36 5 -135 5
-220z m1031 198 c65 -68 91 -146 72 -215 -27 -102 -158 60 -161 199 0 29 18
58 37 58 7 0 30 -19 52 -42z m-465 -150 c483 -326 541 -384 542 -536 0 -65
-50 -400 -62 -414 -6 -6 -24 -10 -121 -23 -25 -3 -97 -14 -160 -25 -176 -28
-274 -40 -387 -45 -62 -3 -73 -1 -74 13 -6 149 3 978 14 1170 0 6 6 12 12 12
6 0 113 -68 236 -152z m1010 72 c27 -15 24 -46 -13 -137 -36 -90 -40 -163 -12
-228 l17 -40 15 43 c13 39 73 113 125 152 17 12 17 10 -1 -36 -11 -27 -59
-150 -107 -274 -121 -313 -142 -350 -229 -405 -25 -15 -50 -41 -57 -57 -27
-65 27 -130 118 -144 44 -6 45 -7 22 -19 -23 -12 -139 -42 -189 -49 -39 -5
-68 14 -82 53 -19 54 -15 687 6 921 8 93 18 158 27 171 5 8 9 12 10 9 0 -3 3
-14 6 -25 3 -11 4 -148 4 -304 -1 -157 0 -283 2 -280 3 2 8 33 11 69 13 125
33 199 53 201 51 5 70 21 96 79 24 54 29 154 12 220 -7 27 -11 51 -8 54 3 2
16 1 30 -5 41 -15 63 -11 75 16 12 27 37 32 69 15z m139 -16 c15 -38 12 -70
-7 -89 -15 -16 -18 -15 -34 7 -19 23 -24 63 -13 92 10 25 43 19 54 -10z m-358
-48 c7 -33 -20 -86 -42 -86 -33 0 -37 80 -8 117 14 18 44 -1 50 -31z m573 -30
c51 -22 55 -58 41 -356 -4 -85 -9 -171 -11 -190 -2 -19 -6 -75 -9 -125 -10
-130 -24 -270 -31 -295 -2 -8 -6 -32 -9 -53 -4 -21 -11 -47 -16 -58 -42 -77
-55 74 -55 626 0 494 -1 489 90 451z m-149 -132 c12 -73 11 -179 -2 -221 -6
-23 -26 -60 -43 -82 -43 -54 -103 -187 -132 -291 -37 -135 -83 -263 -96 -267
-47 -16 12 225 124 507 77 194 133 356 133 384 0 30 9 14 16 -30z m-1817 -336
c1 -85 -1 -120 -8 -113 -24 24 -34 167 -16 224 14 46 23 6 24 -111z m-145
-158 c10 -174 23 -210 76 -210 35 0 37 6 10 28 -30 25 -41 114 -31 245 2 34
16 15 40 -55 35 -105 47 -167 50 -246 3 -85 -10 -99 -50 -54 -34 38 -47 39
-100 10 -53 -31 -62 -17 -55 82 6 78 8 95 32 224 7 43 14 81 14 84 0 3 2 3 4
1 2 -2 6 -51 10 -109z m1931 -43 c-3 -138 -14 -196 -42 -218 -15 -13 -16 -10
-10 26 23 148 18 180 -18 108 -13 -28 -20 -71 -24 -160 -6 -125 -14 -148 -47
-141 -45 8 -6 222 76 423 60 144 70 138 65 -38z m-731 -388 c-3 -46 -33 -131
-51 -145 -10 -8 -63 -39 -118 -70 -198 -111 -332 -193 -452 -278 -68 -47 -125
-86 -128 -86 -3 0 -5 28 -5 62 0 105 71 213 213 326 139 110 260 168 417 200
115 23 125 22 124 -9z m-443 -67 c-10 -10 -29 -25 -41 -35 -12 -10 -54 -41
-93 -69 -40 -28 -92 -66 -116 -85 -24 -18 -48 -33 -52 -33 -10 0 -12 93 -3
127 3 12 18 30 32 39 29 19 272 84 285 77 4 -3 -1 -12 -12 -21z m1249 -32 c0
-10 -31 -36 -65 -53 -71 -36 -261 -69 -379 -66 -99 3 -142 13 -156 38 -8 16
-4 23 23 40 42 26 126 48 236 62 47 6 97 12 111 15 14 2 48 7 75 10 28 4 52 8
54 10 6 5 101 -48 101 -56z m-712 -113 c19 -22 -22 -51 -159 -113 -226 -101
-513 -263 -496 -280 6 -6 112 39 283 122 257 123 398 172 515 179 91 6 109
-27 52 -92 -23 -25 -192 -153 -204 -153 -4 0 -2 15 6 34 44 106 9 131 -130 94
-118 -32 -305 -118 -305 -140 0 -18 53 -4 189 51 80 32 163 61 184 65 32 6 37
4 37 -13 0 -41 -90 -91 -165 -91 -45 0 -108 -20 -130 -41 -22 -19 -45 -25
-130 -33 -27 -2 -83 -16 -124 -30 -72 -25 -111 -32 -111 -20 0 3 5 14 10 25
19 35 -31 22 -94 -26 -67 -50 -88 -48 -61 8 80 169 762 540 833 454z m-1803
-132 c11 -128 32 -226 55 -250 11 -12 39 -27 60 -34 43 -13 61 -38 99 -143 21
-56 83 -270 125 -428 73 -280 151 -553 201 -710 42 -133 51 -188 46 -291 -2
-37 -34 -68 -65 -62 -14 3 -29 10 -34 17 -17 21 -41 109 -107 386 -105 444
-191 735 -295 995 -102 255 -115 329 -101 584 2 44 9 17 16 -64z m2382 77 c21
-13 31 -56 29 -133 -2 -104 -22 -127 -85 -94 -85 43 -65 234 24 235 11 0 25
-4 32 -8z m-2284 -89 c10 -23 41 -66 69 -95 27 -29 65 -84 84 -121 93 -182
316 -971 340 -1198 9 -90 -10 -67 -48 58 -91 298 -243 842 -263 946 -10 45
-54 111 -113 169 -87 84 -91 94 -107 288 -3 40 -2 42 8 20 6 -14 19 -44 30
-67z m2084 -6 c9 -52 9 -62 0 -113 -7 -44 -18 -57 -54 -68 -36 -11 -39 27 -8
80 30 51 28 50 -66 -18 -82 -59 -119 -75 -119 -50 0 22 19 51 89 131 96 111
144 123 158 38z m117 -258 c31 -18 50 -43 29 -37 -9 2 -121 -9 -168 -17 -16
-3 -66 -12 -110 -20 -44 -8 -93 -17 -110 -19 -81 -14 -607 -116 -625 -121 -8
-2 -28 -7 -45 -9 -54 -10 -219 -45 -252 -55 -37 -11 -63 6 -63 40 0 35 36 56
128 78 72 17 569 110 722 135 19 3 45 8 57 10 11 3 43 8 70 12 26 3 57 8 68
10 11 2 47 7 80 10 33 3 61 7 63 9 12 11 125 -7 156 -26z m-2287 -196 c30 -54
159 -416 198 -553 59 -212 81 -293 112 -410 19 -74 37 -144 39 -155 2 -11 9
-45 16 -75 13 -65 14 -68 25 -140 9 -59 4 -101 -12 -102 -21 -1 -56 95 -104
284 -54 213 -73 279 -161 558 -112 355 -168 578 -153 616 8 22 18 17 40 -23z
m1814 -57 c47 -36 74 -65 207 -224 176 -211 443 -594 426 -611 -13 -14 -374
411 -595 700 -96 124 -113 152 -102 163 11 10 19 7 64 -28z m-117 -96 c94
-104 166 -246 249 -490 45 -133 69 -196 120 -316 42 -98 43 -140 4 -96 -27 30
-112 218 -162 362 -64 180 -131 318 -201 415 -60 83 -104 161 -104 183 0 21
51 -11 94 -58z m-188 52 c7 -4 33 -36 59 -72 26 -36 58 -76 70 -90 46 -49 122
-210 254 -536 38 -93 81 -194 95 -224 39 -81 30 -138 -21 -128 -34 6 -130 220
-223 493 -71 212 -129 289 -144 195 -3 -22 -11 -40 -16 -40 -22 0 -65 62 -115
166 -55 115 -76 144 -101 144 -25 0 -45 -66 -45 -149 0 -90 6 -129 32 -235 11
-43 18 -83 16 -90 -7 -19 -97 82 -97 109 0 23 -41 75 -60 75 -19 0 -43 51 -45
95 -3 64 10 74 25 20 21 -73 32 -66 25 16 -18 197 -15 211 49 228 100 28 218
39 242 23z m-413 -125 c22 -44 35 -157 19 -157 -18 0 -51 82 -58 144 -6 48 -5
58 7 54 8 -2 22 -21 32 -41z m328 -163 c51 -109 91 -164 117 -164 10 0 31 9
47 20 36 24 39 24 59 4 23 -23 20 -42 -15 -76 -50 -51 -60 -72 -65 -150 -7
-99 -12 -118 -30 -118 -32 0 -123 250 -149 410 -3 19 -8 42 -10 50 -2 8 -7 38
-10 65 -3 28 -7 64 -10 80 -5 30 -5 30 7 5 6 -14 33 -70 59 -126z m-1420 -39
c43 -93 116 -309 125 -369 6 -39 6 -40 -10 -19 -31 41 -145 279 -172 358 -19
56 -25 89 -20 108 6 25 9 27 23 15 9 -7 33 -49 54 -93z m1986 -129 c16 -53 21
-60 45 -61 44 -1 135 -101 187 -204 27 -52 38 -139 22 -169 -29 -54 -109 -3
-160 103 -67 138 -162 412 -160 464 0 22 4 18 24 -24 13 -27 32 -77 42 -109z
m-2002 -116 c14 -22 25 -42 25 -44 0 -2 15 -37 34 -78 66 -141 105 -258 85
-258 -5 0 -20 22 -34 49 -23 46 -42 68 -50 60 -14 -16 102 -325 120 -321 6 1
11 7 11 12 3 23 5 24 14 10 10 -16 5 -67 -14 -131 l-13 -43 -46 79 c-47 79
-54 79 -38 -2 9 -48 0 -63 -39 -63 -62 0 -84 20 -95 85 -16 97 -26 650 -12
673 13 20 26 14 52 -28z m1680 -57 c18 -37 31 -76 45 -130 8 -35 -4 -60 -30
-63 -67 -9 -83 14 -81 116 2 123 29 155 66 77z m840 -261 c17 -45 -386 -326
-497 -346 -38 -7 -54 16 -33 47 36 55 250 219 355 272 103 52 162 61 175 27z
m-660 -89 c52 -99 64 -164 33 -171 -31 -6 -68 95 -92 247 -6 45 3 33 59 -76z"/>
<path d="M4890 5324 c0 -49 175 -231 267 -278 36 -18 73 -21 73 -6 0 5 -28 28
-62 51 -35 23 -109 88 -164 145 -56 57 -105 104 -108 104 -3 0 -6 -7 -6 -16z"/>
<path d="M3625 4700 c3 -56 11 -59 11 -5 0 25 -3 45 -6 45 -4 0 -6 -18 -5 -40z"/>
<path d="M5625 2039 c9 -62 109 -288 122 -276 9 10 -28 112 -78 213 -38 77
-48 91 -44 63z"/>
<path d="M1400 5095 c-6 -51 -2 -151 5 -143 10 10 15 105 6 133 -7 23 -10 25
-11 10z"/>
<path d="M1399 4805 c-4 -5 -10 -37 -14 -70 -4 -32 -8 -67 -10 -76 -6 -32 -18
-175 -18 -223 0 -54 18 -75 43 -51 11 12 15 43 15 138 0 153 -8 295 -16 282z"/>
<path d="M991 3685 c2 -171 25 -297 90 -483 42 -119 46 -204 14 -297 -13 -39
-75 -187 -138 -330 -122 -276 -193 -462 -227 -593 -40 -155 -45 -328 -5 -191
10 35 20 69 21 74 54 248 143 487 297 805 103 212 121 271 114 374 -4 53 -16
112 -37 171 -29 83 -54 174 -66 235 -2 14 -9 45 -14 70 -5 25 -12 65 -15 90
-4 25 -8 56 -10 70 -2 14 -6 47 -9 74 -11 91 -17 61 -15 -69z"/>
</g>
</svg>
