<svg id="svg" xmlns="http://www.w3.org/2000/svg" xmlns:xlink="http://www.w3.org/1999/xlink" width="400" height="400" viewBox="0, 0, 400,400"><g id="svgg"><path id="path0" d="M92.692 65.234 C 85.117 69.462,83.798 71.540,77.906 88.541 C 69.986 111.392,63.067 116.099,59.375 101.146 C 57.820 94.847,56.131 92.543,52.712 92.057 C 36.487 89.748,34.413 105.860,34.391 234.375 L 34.375 330.208 56.375 330.127 C 75.241 330.057,79.487 329.389,86.182 325.439 C 93.459 321.146,96.558 320.831,131.890 320.801 C 175.921 320.764,173.946 321.468,176.978 304.745 C 178.270 297.625,180.605 287.550,182.168 282.356 C 185.737 270.497,185.579 270.401,160.597 269.232 C 141.198 268.325,140.480 268.454,135.574 273.732 C 128.532 281.310,124.278 280.946,126.042 272.917 L 127.414 266.667 109.541 266.667 L 91.667 266.667 91.635 258.854 C 91.611 253.043,91.086 251.842,89.583 254.167 C 88.243 256.240,87.553 242.743,87.532 214.063 C 87.499 169.277,86.790 166.106,79.383 177.604 C 76.985 181.328,73.147 187.188,70.855 190.625 C 63.951 200.982,67.307 221.463,76.888 227.444 C 80.625 229.776,80.707 257.627,76.987 261.346 C 75.727 262.607,75.000 262.301,75.000 260.510 C 75.000 258.490,73.723 258.815,70.506 261.656 C 66.029 265.610,66.018 265.606,67.462 260.417 C 68.260 257.552,69.364 251.927,69.915 247.917 L 70.918 240.625 68.101 248.958 C 64.315 260.157,59.310 269.512,55.346 272.803 C 53.222 274.565,52.083 278.967,52.083 285.417 C 52.083 290.866,50.677 298.690,48.958 302.804 C 47.240 306.917,45.833 313.782,45.833 318.058 C 45.833 325.987,42.901 325.771,41.077 317.708 C 40.558 315.417,40.316 316.120,40.540 319.271 C 40.763 322.422,40.093 325.000,39.053 325.000 C 37.961 325.000,37.613 313.755,38.229 298.438 C 38.817 283.828,39.313 267.777,39.332 262.767 C 39.353 256.845,41.056 251.016,44.201 246.101 C 50.732 235.891,53.828 229.143,54.838 222.917 C 55.533 218.633,55.733 218.898,55.966 224.415 C 56.122 228.104,54.475 234.666,52.305 238.998 C 50.136 243.331,47.817 249.688,47.152 253.125 C 45.991 259.131,46.032 259.171,48.194 254.167 C 49.432 251.302,52.413 244.433,54.820 238.903 C 59.924 227.173,59.807 220.412,54.287 208.083 C 51.962 202.892,50.674 196.468,51.221 192.794 C 51.989 187.625,51.799 187.226,50.186 190.625 C 48.779 193.590,48.059 188.185,47.688 171.875 L 47.166 148.958 45.833 164.583 C 44.874 175.835,44.396 168.983,44.125 140.104 C 43.886 114.507,44.504 100.000,45.833 100.000 C 46.979 100.000,48.044 102.578,48.199 105.729 C 48.354 108.880,49.122 126.458,49.906 144.792 L 51.331 178.125 51.773 153.125 C 52.192 129.471,54.220 120.833,59.354 120.833 C 60.236 120.833,60.469 134.193,59.872 150.521 C 59.199 168.913,59.414 175.849,60.437 168.750 C 61.345 162.448,62.181 150.550,62.294 142.310 C 62.407 134.071,63.484 126.721,64.687 125.977 C 66.767 124.692,66.210 142.338,63.434 165.625 C 62.780 171.110,63.094 172.960,64.352 171.037 C 65.403 169.431,67.022 158.649,67.951 147.079 C 69.415 128.838,69.816 127.288,70.965 135.417 C 72.167 143.914,72.320 143.427,72.605 130.208 C 72.788 121.764,74.554 111.321,76.802 105.402 L 80.685 95.180 82.773 101.236 C 84.940 107.523,85.806 103.730,88.013 78.286 C 88.304 74.937,89.714 71.812,91.146 71.341 C 93.199 70.667,93.750 87.773,93.750 152.257 C 93.750 197.231,94.453 233.326,95.313 232.469 C 96.172 231.611,97.414 197.470,98.072 156.600 C 98.954 101.836,100.026 79.966,102.145 73.448 C 106.009 61.570,103.369 59.277,92.692 65.234 M258.326 64.467 C 251.826 67.703,249.024 67.831,232.292 65.655 C 216.568 63.611,212.533 63.705,207.292 66.235 C 193.153 73.061,193.750 70.322,193.750 128.325 C 193.750 181.233,194.500 186.679,201.042 181.250 C 205.204 177.795,208.333 180.474,208.333 187.491 C 208.333 192.732,207.482 193.568,201.563 194.139 C 195.765 194.698,194.853 195.540,195.216 200.000 C 196.605 217.036,195.428 319.781,193.809 322.806 C 188.505 332.717,236.664 335.878,251.045 326.563 L 258.282 321.875 258.401 291.667 L 258.520 261.458 267.871 271.875 C 273.014 277.604,282.582 289.668,289.132 298.683 C 313.440 332.138,314.640 332.518,339.136 314.538 C 350.105 306.487,355.843 300.975,354.915 299.380 C 352.105 294.556,324.355 259.312,318.240 252.802 L 312.066 246.229 324.262 243.753 C 344.433 239.659,345.833 238.724,345.833 229.347 C 345.833 218.831,349.019 210.417,353.000 210.417 C 359.009 210.417,360.417 202.387,360.417 168.111 L 360.417 133.865 351.305 129.920 C 346.294 127.751,332.935 117.452,321.618 107.033 C 271.372 60.773,268.980 59.164,258.326 64.467 M239.193 72.061 C 258.695 74.576,248.230 77.652,225.875 75.976 C 207.508 74.599,205.899 74.154,209.522 71.454 C 212.066 69.558,216.219 68.858,220.833 69.546 C 224.844 70.144,233.106 71.276,239.193 72.061 M283.869 80.647 C 306.336 99.027,334.761 126.913,331.122 127.003 C 329.333 127.047,326.052 125.439,323.830 123.430 C 321.609 121.421,308.073 109.560,293.750 97.072 C 258.245 66.116,260.876 68.750,265.467 68.750 C 267.591 68.750,275.871 74.104,283.869 80.647 M206.337 110.586 L 207.466 140.625 208.239 110.417 C 208.832 87.263,209.340 82.884,210.417 91.667 L 211.821 103.125 212.407 91.667 C 212.897 82.085,213.230 81.232,214.439 86.458 L 215.884 92.708 217.415 86.245 C 218.724 80.718,219.709 79.928,224.214 80.789 C 231.436 82.170,229.870 93.078,216.448 134.893 C 210.839 152.366,206.250 168.069,206.250 169.789 C 206.250 171.509,204.844 172.917,203.125 172.917 C 200.439 172.917,200.000 166.300,200.000 125.868 C 200.000 89.157,200.572 79.009,202.604 79.683 C 204.455 80.297,205.535 89.239,206.337 110.586 M254.167 199.745 C 254.167 304.384,253.754 320.666,251.042 322.917 C 248.270 325.217,247.917 311.743,247.917 203.727 C 247.917 88.212,248.244 79.167,252.431 79.167 C 253.385 79.167,254.167 133.427,254.167 199.745 M275.408 88.605 C 276.664 91.363,278.442 93.156,279.359 92.590 C 280.275 92.023,286.935 97.176,294.158 104.041 C 308.054 117.246,307.569 119.035,291.314 114.520 C 285.361 112.867,282.418 110.218,278.018 102.553 C 274.911 97.138,270.472 89.551,268.154 85.692 L 263.940 78.676 268.532 81.133 C 271.057 82.485,274.151 85.847,275.408 88.605 M236.809 84.537 C 237.502 86.344,236.535 89.358,234.660 91.233 C 231.502 94.391,231.250 94.147,231.250 87.946 C 231.250 80.950,234.635 78.873,236.809 84.537 M245.472 90.487 C 246.314 97.644,242.566 95.914,241.147 88.490 C 240.504 85.126,240.987 83.449,242.461 83.932 C 243.743 84.352,245.098 87.302,245.472 90.487 M272.603 99.716 C 281.823 115.235,285.935 117.941,302.671 119.503 C 312.295 120.402,318.750 123.547,318.750 127.338 C 318.750 130.418,306.926 129.366,304.167 126.042 C 293.586 113.292,290.799 130.783,301.287 144.110 C 305.623 149.620,305.092 149.332,298.699 142.708 C 294.275 138.125,290.024 134.375,289.252 134.375 C 288.479 134.375,287.066 133.522,286.111 132.478 C 285.102 131.377,285.466 131.210,286.979 132.081 C 290.412 134.056,290.264 132.359,286.340 124.772 C 281.880 116.146,268.890 102.083,265.383 102.083 C 263.408 102.083,262.500 99.457,262.500 93.750 C 262.500 82.880,262.656 82.972,272.603 99.716 M279.233 95.164 C 279.125 99.178,292.878 112.501,297.121 112.492 C 300.078 112.486,299.464 111.522,294.623 108.570 C 291.092 106.417,286.200 101.968,283.751 98.682 C 281.302 95.397,279.269 93.813,279.233 95.164 M234.858 106.822 C 236.314 106.529,235.274 113.197,232.096 124.530 C 224.839 150.413,220.799 172.314,221.058 184.375 C 221.243 193.005,221.773 191.396,224.148 175.000 C 225.725 164.115,229.510 145.833,232.558 134.375 C 235.607 122.917,238.538 110.486,239.072 106.752 C 239.607 103.017,240.878 99.446,241.897 98.816 C 244.899 96.960,244.015 115.486,240.786 122.076 C 237.104 129.591,227.083 177.990,227.083 188.260 C 227.083 196.139,228.693 197.557,232.882 193.368 C 236.657 189.593,238.135 192.639,238.884 205.732 C 239.543 217.244,239.080 217.344,235.086 206.552 C 233.361 201.892,233.018 201.811,228.249 204.936 C 224.478 207.406,222.971 207.590,222.195 205.675 C 221.604 204.216,221.092 204.684,220.998 206.771 C 220.810 210.927,225.067 211.600,228.682 207.985 C 230.535 206.132,231.414 206.503,232.375 209.547 C 233.070 211.744,234.975 216.620,236.610 220.383 C 238.731 225.263,239.527 235.120,239.385 254.758 L 239.187 282.292 233.033 262.500 C 229.648 251.615,225.753 238.965,224.377 234.391 C 222.683 228.758,220.025 225.191,216.146 223.340 C 209.632 220.231,208.291 209.300,212.870 196.636 C 214.803 191.291,214.730 187.945,212.524 180.863 C 208.644 168.402,209.417 163.276,219.942 131.707 C 225.016 116.489,229.278 101.958,229.413 99.415 C 229.603 95.851,229.988 96.224,231.091 101.042 C 231.879 104.479,233.574 107.080,234.858 106.822 M56.360 114.163 C 54.515 117.329,54.287 117.346,54.230 114.323 C 54.195 112.461,53.689 107.773,53.106 103.906 L 52.045 96.875 55.236 103.747 C 57.487 108.592,57.818 111.663,56.360 114.163 M274.095 112.830 C 284.740 124.900,286.805 130.813,277.435 122.396 C 272.652 118.099,267.334 114.583,265.619 114.583 C 263.669 114.583,262.500 112.603,262.500 109.302 C 262.500 103.157,266.688 104.431,274.095 112.830 M79.650 112.500 C 79.650 116.510,80.079 118.151,80.603 116.146 C 81.127 114.141,81.127 110.859,80.603 108.854 C 80.079 106.849,79.650 108.490,79.650 112.500 M274.670 123.748 C 284.827 132.860,283.576 136.008,273.238 127.352 C 267.332 122.408,262.500 118.010,262.500 117.580 C 262.500 115.806,270.127 119.672,274.670 123.748 M78.426 135.024 C 77.446 142.255,77.212 148.740,77.906 149.433 C 80.578 152.106,81.438 147.907,80.835 135.137 L 80.208 121.875 78.426 135.024 M240.977 151.803 C 239.336 153.676,237.328 157.388,236.515 160.053 C 232.575 172.964,233.499 160.391,237.817 142.331 L 242.708 121.875 243.335 135.136 C 243.773 144.416,243.065 149.419,240.977 151.803 M302.976 128.274 C 308.181 133.478,307.532 145.556,302.302 140.823 C 298.383 137.276,295.431 128.181,297.520 126.091 C 299.078 124.533,299.341 124.639,302.976 128.274 M284.511 142.188 C 308.491 158.896,308.628 159.172,304.534 182.292 L 303.059 190.625 287.467 193.098 C 278.891 194.459,269.297 195.631,266.146 195.703 L 260.417 195.833 260.417 161.458 C 260.417 142.552,260.961 127.083,261.625 127.083 C 262.290 127.083,272.589 133.880,284.511 142.188 M334.145 132.962 C 334.727 133.903,333.918 137.152,332.346 140.182 C 330.419 143.895,330.056 147.579,331.232 151.490 C 332.191 154.681,333.056 155.796,333.154 153.969 C 333.253 152.141,335.287 148.878,337.674 146.717 L 342.015 142.789 337.528 154.207 C 335.061 160.487,331.559 169.448,329.746 174.122 C 327.933 178.795,324.483 183.482,322.079 184.538 C 315.909 187.249,316.430 194.296,322.917 195.857 L 328.125 197.110 322.917 198.527 C 308.891 202.341,309.309 203.322,310.004 168.232 C 310.350 150.757,311.537 135.552,312.643 134.444 C 313.935 133.150,314.357 140.970,313.823 156.319 C 313.335 170.374,313.535 174.634,314.309 166.667 C 315.365 155.803,316.310 153.176,319.088 153.384 C 323.040 153.679,326.014 142.566,323.639 136.376 C 322.513 133.442,322.964 132.906,325.680 133.948 C 327.598 134.684,329.167 134.378,329.167 133.268 C 329.167 130.809,332.682 130.593,334.145 132.962 M341.667 135.540 C 341.667 137.899,340.729 139.250,339.583 138.542 C 338.438 137.834,337.500 135.903,337.500 134.252 C 337.500 132.601,338.438 131.250,339.583 131.250 C 340.729 131.250,341.667 133.180,341.667 135.540 M320.833 136.335 C 320.833 137.987,319.896 139.917,318.750 140.625 C 317.604 141.333,316.667 139.982,316.667 137.623 C 316.667 135.264,317.604 133.333,318.750 133.333 C 319.896 133.333,320.833 134.684,320.833 136.335 M355.494 163.343 C 352.929 210.920,347.917 213.167,347.917 166.739 C 347.917 136.137,347.964 135.819,352.385 136.975 C 356.740 138.114,356.819 138.779,355.494 163.343 M341.875 162.756 C 339.574 165.226,336.050 173.616,334.045 181.400 C 332.040 189.185,329.752 195.153,328.960 194.664 C 326.732 193.287,330.762 178.001,337.577 161.988 C 340.972 154.009,343.919 145.469,344.126 143.011 C 344.332 140.553,344.852 142.980,345.280 148.404 C 345.889 156.119,345.148 159.243,341.875 162.756 M241.150 165.104 C 241.130 172.014,240.810 172.814,239.692 168.750 C 238.443 164.211,239.036 156.250,240.622 156.250 C 240.927 156.250,241.164 160.234,241.150 165.104 M237.093 185.252 C 239.263 185.151,239.621 184.682,238.021 184.037 C 236.481 183.416,235.484 179.438,235.581 174.306 C 235.672 169.531,236.215 167.031,236.788 168.750 C 237.361 170.469,238.353 173.281,238.993 175.000 C 242.100 183.351,242.028 194.933,238.896 190.704 C 236.320 187.226,235.367 187.031,232.517 189.396 C 228.594 192.652,228.099 188.321,230.752 173.958 L 232.292 165.625 232.927 175.521 C 233.424 183.266,234.329 185.381,237.093 185.252 M343.403 175.679 C 343.403 180.635,342.487 186.026,341.367 187.658 C 339.950 189.722,339.714 188.406,340.589 183.333 C 341.603 177.458,341.398 176.763,339.534 179.753 C 338.261 181.795,337.386 185.545,337.590 188.087 C 338.195 195.622,337.634 197.917,335.185 197.917 C 332.389 197.917,334.254 186.323,338.931 174.635 C 342.967 164.547,343.403 164.648,343.403 175.679 M80.775 188.404 C 72.527 194.487,70.740 206.156,77.083 212.500 C 81.242 216.659,82.901 227.083,79.404 227.083 C 76.241 227.083,70.005 211.829,69.944 203.943 C 69.874 194.834,81.554 175.283,82.961 182.154 C 83.415 184.370,82.431 187.182,80.775 188.404 M56.535 190.697 C 56.376 196.568,58.085 206.406,60.417 213.041 C 65.924 228.710,66.109 227.495,54.195 253.901 C 43.700 277.162,39.554 290.478,39.843 300.000 C 39.930 302.865,41.241 299.567,42.757 292.673 C 45.929 278.240,51.439 263.619,60.385 245.896 C 67.568 231.667,67.996 227.046,63.306 214.324 C 61.458 209.311,59.242 199.583,58.383 192.708 L 56.820 180.208 56.535 190.697 M81.612 197.240 C 80.480 199.355,80.009 203.889,80.565 207.314 C 81.344 212.114,81.069 212.825,79.362 210.417 C 75.775 205.355,78.817 188.539,82.629 192.351 C 83.202 192.924,82.745 195.124,81.612 197.240 M50.569 208.221 C 51.957 210.030,51.001 209.708,48.402 207.490 C 45.843 205.307,43.809 201.557,43.882 199.156 C 44.002 195.176,44.193 195.240,46.049 199.888 C 47.169 202.691,49.203 206.441,50.569 208.221 M301.265 199.129 C 300.569 200.941,300.000 203.269,300.000 204.302 C 300.000 205.335,295.078 208.649,289.063 211.668 C 283.047 214.686,273.672 220.325,268.229 224.199 L 258.333 231.243 258.333 225.386 C 258.333 216.424,277.426 200.521,291.484 197.773 C 302.661 195.589,302.625 195.584,301.265 199.129 M277.083 200.689 C 277.083 201.067,272.865 204.407,267.708 208.110 L 258.333 214.842 258.333 209.627 C 258.333 205.191,259.657 204.115,267.188 202.429 C 272.057 201.338,276.276 200.346,276.563 200.223 C 276.849 200.100,277.083 200.310,277.083 200.689 M346.757 202.781 C 350.608 205.597,334.472 210.540,322.048 210.350 C 308.096 210.137,310.513 204.545,325.410 202.573 C 333.778 201.465,341.149 200.433,341.789 200.279 C 342.430 200.126,344.665 201.252,346.757 202.781 M213.725 224.111 C 217.689 227.396,220.983 235.373,227.491 257.444 C 235.163 283.464,239.702 304.884,236.950 302.083 C 235.804 300.917,222.014 252.688,219.842 242.251 C 219.075 238.562,216.049 233.796,213.118 231.661 C 208.818 228.530,207.691 225.800,207.286 217.536 C 207.009 211.901,207.173 210.104,207.649 213.542 C 208.125 216.979,210.859 221.735,213.725 224.111 M205.282 228.646 C 205.858 231.224,207.685 233.333,209.341 233.333 C 213.740 233.333,215.441 237.550,223.894 269.408 C 228.094 285.236,232.873 301.993,234.515 306.647 C 238.514 317.980,238.422 327.083,234.310 327.083 C 230.569 327.083,231.333 329.332,222.981 293.750 C 219.350 278.281,213.163 258.086,209.231 248.873 C 203.475 235.381,202.152 229.704,202.434 219.706 C 202.690 210.607,202.978 209.517,203.510 215.625 C 203.909 220.208,204.707 226.068,205.282 228.646 M307.155 210.196 C 307.788 211.220,304.328 213.640,299.466 215.574 C 289.017 219.729,268.176 231.371,269.255 232.450 C 269.669 232.864,278.355 229.013,288.557 223.893 C 313.685 211.281,330.493 212.188,312.260 225.171 L 305.771 229.792 307.193 225.312 C 308.370 221.602,307.785 220.841,303.786 220.879 C 298.317 220.931,280.076 228.687,281.671 230.282 C 282.244 230.855,286.837 229.453,291.877 227.166 C 303.309 221.980,307.885 221.561,304.167 226.042 C 302.740 227.760,298.931 229.167,295.701 229.167 C 292.472 229.167,289.222 230.149,288.480 231.350 C 287.738 232.550,285.573 233.344,283.670 233.113 C 281.766 232.882,278.333 233.396,276.042 234.255 C 268.144 237.215,266.454 237.446,267.723 235.393 C 269.731 232.144,266.332 232.990,262.143 236.781 C 260.048 238.678,258.333 239.219,258.333 237.985 C 258.333 229.112,303.098 203.631,307.155 210.196 M50.542 218.515 C 51.088 220.603,49.449 227.245,46.899 233.276 L 42.264 244.242 42.295 230.975 C 42.319 221.008,42.649 219.522,43.623 225.000 L 44.919 232.292 46.533 226.261 C 47.510 222.613,47.279 219.362,45.949 218.032 C 44.739 216.823,43.750 214.500,43.750 212.870 C 43.750 208.802,49.183 213.317,50.542 218.515 M341.667 219.944 C 341.667 225.894,340.939 227.249,338.045 226.691 C 331.591 225.448,331.985 212.500,338.476 212.500 C 340.746 212.500,341.667 214.648,341.667 219.944 M328.746 220.696 C 329.002 224.059,328.202 227.434,326.967 228.197 C 323.258 230.489,322.117 227.442,325.224 223.544 C 327.135 221.145,326.074 221.483,322.115 224.535 C 313.238 231.376,311.261 230.164,318.024 222.025 C 325.385 213.167,328.146 212.825,328.746 220.696 M335.417 233.333 C 337.995 235.000,337.798 235.358,334.288 235.385 C 329.819 235.418,268.438 247.074,262.044 249.103 C 259.576 249.886,258.333 249.201,258.333 247.055 C 258.333 243.263,259.233 243.011,295.833 236.561 C 328.303 230.838,331.192 230.603,335.417 233.333 M212.419 265.625 C 219.006 285.437,227.044 317.224,227.069 323.560 C 227.098 331.214,223.121 324.558,220.749 312.985 C 219.403 306.416,214.652 289.884,210.192 276.246 C 202.450 252.571,199.464 236.471,204.166 243.750 C 205.276 245.469,208.990 255.313,212.419 265.625 M316.902 256.771 C 329.668 271.682,346.623 295.833,344.325 295.833 C 342.516 295.833,304.167 249.122,304.167 246.919 C 304.167 243.636,308.581 247.051,316.902 256.771 M298.214 259.523 C 300.356 261.896,305.403 272.209,309.429 282.440 C 313.455 292.671,317.612 302.581,318.668 304.463 C 320.530 307.780,319.603 310.417,316.576 310.417 C 314.849 310.417,308.289 295.329,303.214 279.688 C 300.050 269.937,295.833 264.977,295.833 271.007 C 295.833 276.205,290.869 271.025,287.745 262.569 C 281.867 246.657,276.913 259.754,281.920 277.968 C 283.398 283.344,283.212 283.743,280.339 281.359 C 278.549 279.872,277.083 277.465,277.083 276.009 C 277.083 274.554,275.677 272.823,273.958 272.163 C 272.240 271.504,270.927 268.825,271.041 266.211 C 271.244 261.558,271.287 261.567,273.074 266.667 C 274.396 270.438,274.594 269.164,273.791 262.048 C 272.776 253.053,273.089 252.134,277.487 251.192 C 288.594 248.812,290.716 248.924,292.472 251.987 C 293.488 253.759,296.072 257.150,298.214 259.523 M314.440 277.642 C 317.090 285.928,320.620 295.374,322.283 298.631 C 323.946 301.889,324.838 305.023,324.266 305.596 C 322.754 307.107,317.540 296.339,312.368 281.025 C 309.894 273.701,305.161 264.248,301.851 260.018 C 293.561 249.424,294.318 245.048,302.767 254.725 C 306.873 259.428,311.552 268.615,314.440 277.642 M268.686 263.542 C 268.686 266.992,268.339 267.171,266.667 264.583 C 265.556 262.865,264.647 259.583,264.647 257.292 C 264.647 253.841,264.994 253.662,266.667 256.250 C 267.777 257.969,268.686 261.250,268.686 263.542 M290.061 274.505 C 291.605 276.385,292.978 276.505,294.883 274.925 C 296.779 273.351,297.983 273.422,299.065 275.173 C 299.922 276.559,299.093 278.467,297.167 279.545 C 295.012 280.751,293.750 284.157,293.750 288.768 C 293.750 303.651,285.892 286.568,282.626 264.583 L 281.542 257.292 284.723 264.583 C 286.472 268.594,288.874 273.058,290.061 274.505 M208.286 277.987 C 214.176 295.107,213.542 296.392,206.276 282.064 C 202.853 275.314,200.041 267.964,200.026 265.729 C 199.983 259.101,203.671 264.574,208.286 277.987 M317.861 275.545 C 318.694 279.256,319.789 281.097,320.295 279.637 C 320.833 278.082,324.291 281.012,328.646 286.715 C 336.233 296.652,333.759 307.863,325.824 299.500 C 322.630 296.133,311.868 266.030,314.424 267.610 C 315.481 268.263,317.028 271.834,317.861 275.545 M108.977 270.744 C 113.718 270.797,116.394 271.672,115.625 272.917 C 114.877 274.127,103.366 275.000,88.164 275.000 C 64.526 275.000,62.255 274.680,64.726 271.703 C 66.964 269.007,70.525 268.611,84.252 269.530 C 93.486 270.148,104.613 270.694,108.977 270.744 M165.625 274.652 C 170.647 275.553,172.959 276.774,171.444 277.724 C 168.199 279.760,141.667 277.076,141.667 274.712 C 141.667 272.583,153.922 272.552,165.625 274.652 M127.139 283.333 C 129.535 283.333,130.916 284.271,130.208 285.417 C 125.932 292.336,114.600 285.262,117.694 277.604 C 119.003 274.365,119.369 274.481,120.975 278.646 C 122.051 281.436,124.545 283.333,127.139 283.333 M113.560 287.075 L 118.421 292.708 108.690 295.380 C 103.338 296.849,95.727 298.115,91.777 298.192 C 86.296 298.300,85.403 298.785,88.005 300.241 C 90.239 301.491,97.915 300.701,110.269 297.950 C 131.382 293.247,156.150 292.400,160.000 296.250 C 163.882 300.132,162.947 302.469,158.470 300.073 C 151.169 296.166,136.516 297.811,110.264 305.484 C 93.415 310.410,79.647 313.138,70.833 313.297 L 57.292 313.542 56.639 306.771 C 56.048 300.641,56.541 299.970,61.847 299.688 L 67.708 299.376 61.856 298.496 C 51.080 296.876,56.970 292.691,69.594 292.998 C 78.718 293.220,81.270 292.640,80.460 290.528 C 79.877 289.011,80.520 287.314,81.888 286.757 C 83.301 286.183,82.875 285.675,80.903 285.581 C 78.993 285.491,77.001 284.245,76.476 282.813 C 75.712 280.729,74.969 280.729,72.760 282.813 C 69.685 285.714,58.333 286.397,58.333 283.681 C 58.333 275.742,106.325 278.691,113.560 287.075 M207.367 290.104 C 210.168 296.120,212.409 302.448,212.348 304.167 C 212.286 305.885,211.338 305.046,210.240 302.302 C 209.142 299.557,207.818 297.738,207.297 298.258 C 206.777 298.779,208.159 303.837,210.370 309.498 C 212.580 315.160,214.432 318.464,214.486 316.840 C 214.539 315.217,215.015 314.320,215.542 314.848 C 216.070 315.375,215.930 317.991,215.232 320.660 L 213.963 325.514 211.018 320.569 L 208.072 315.625 209.082 320.436 C 209.918 324.420,209.313 325.136,205.566 324.603 C 201.286 323.993,201.010 322.748,200.450 301.563 C 199.775 275.991,200.352 275.036,207.367 290.104 M165.893 283.958 C 168.532 286.665,163.527 295.415,160.321 293.699 C 158.232 292.581,151.306 291.667,144.929 291.667 C 132.293 291.667,132.120 291.543,135.938 285.199 C 138.180 281.471,162.486 280.465,165.893 283.958 M175.042 297.666 C 171.972 315.870,165.611 323.571,167.408 306.908 C 168.954 292.576,171.029 284.666,173.698 282.926 C 177.421 280.498,177.603 282.486,175.042 297.666 M320.980 281.729 C 320.742 284.195,327.529 300.249,328.429 299.348 C 328.883 298.895,327.425 294.403,325.191 289.366 C 322.956 284.329,321.061 280.892,320.980 281.729 M301.410 290.206 C 303.258 296.227,303.043 297.115,299.676 297.368 C 296.630 297.598,295.833 296.172,295.833 290.496 C 295.833 281.416,298.667 281.269,301.410 290.206 M66.547 304.390 C 65.107 307.081,64.944 309.527,66.125 310.709 C 68.616 313.199,74.333 310.994,75.887 306.943 C 78.723 299.552,70.360 297.266,66.547 304.390 M159.153 303.922 C 164.570 309.907,161.706 318.508,154.365 318.299 C 149.996 318.175,148.724 317.132,148.826 313.756 C 148.922 310.562,147.547 309.240,143.750 308.875 C 138.618 308.382,138.610 308.404,143.229 310.370 C 147.872 312.347,149.093 314.796,146.653 317.236 C 145.958 317.931,143.438 316.681,141.052 314.458 C 135.943 309.698,132.106 309.479,125.000 313.542 C 122.135 315.179,118.385 316.519,116.667 316.519 C 111.065 316.519,123.614 310.684,134.673 308.146 C 148.704 304.926,157.008 306.830,155.104 312.830 C 154.176 315.753,154.480 316.719,156.027 315.763 C 159.461 313.640,158.814 306.880,155.038 305.431 C 146.596 302.192,117.062 308.257,109.034 314.879 C 107.556 316.098,103.895 316.166,99.659 315.054 L 92.708 313.230 103.360 309.667 C 131.820 300.149,153.700 297.896,159.153 303.922 M313.108 315.285 C 311.373 318.093,308.875 314.106,307.448 306.250 L 306.123 298.958 310.155 306.249 C 312.372 310.259,313.701 314.325,313.108 315.285 M347.768 301.563 C 347.414 305.278,321.411 322.132,317.921 320.908 C 315.004 319.885,316.691 317.700,326.411 309.909 C 337.066 301.369,348.201 297.017,347.768 301.563 M50.273 317.766 C 48.509 325.300,48.319 325.481,48.154 319.792 C 47.935 312.201,50.573 301.698,51.542 306.308 C 51.910 308.059,51.339 313.215,50.273 317.766 " stroke="none" fill="#000000" fill-rule="evenodd"></path></g></svg>